<svg width="14" height="14" viewBox="0 0 14 14" fill="none" xmlns="http://www.w3.org/2000/svg">
<path fill-rule="evenodd" clip-rule="evenodd" d="M7 14C10.866 14 14 10.866 14 7C14 3.13401 10.866 0 7 0C3.13401 0 0 3.13401 0 7C0 10.866 3.13401 14 7 14ZM7.72917 8.70049H6.28542L5.93542 1.75H8.09375L7.72917 8.70049ZM8.16667 11.0916C8.16667 11.7302 7.68542 12.25 7.01458 12.25C6.32917 12.25 5.83333 11.7302 5.83333 11.0916C5.83333 10.453 6.32917 9.94802 7.01458 9.94802C7.68542 9.94802 8.16667 10.453 8.16667 11.0916Z" fill="#FF6E40"/>
</svg>
