<svg width="7" height="6" viewBox="0 0 7 6" fill="none" xmlns="http://www.w3.org/2000/svg">
<path fill-rule="evenodd" clip-rule="evenodd" d="M0.14156 0.146447C0.330307 -0.0488155 0.636327 -0.0488155 0.825074 0.146447L3.58342 3L0.825074 5.85355C0.636327 6.04882 0.330307 6.04882 0.14156 5.85355C-0.0471867 5.65829 -0.0471867 5.34171 0.14156 5.14645L2.21639 3L0.14156 0.853553C-0.0471867 0.658291 -0.0471867 0.341709 0.14156 0.146447Z" fill="#EBEBEB"/>
<path fill-rule="evenodd" clip-rule="evenodd" d="M3.55814 0.146447C3.74689 -0.0488155 4.05291 -0.0488155 4.24166 0.146447L7 3L4.24166 5.85355C4.05291 6.04882 3.74689 6.04882 3.55814 5.85355C3.3694 5.65829 3.3694 5.34171 3.55814 5.14645L5.63297 3L3.55814 0.853553C3.3694 0.658291 3.3694 0.341709 3.55814 0.146447Z" fill="#EBEBEB"/>
</svg>
