<svg width="14" height="16" viewBox="0 0 14 16" fill="none" xmlns="http://www.w3.org/2000/svg">
<path fill-rule="evenodd" clip-rule="evenodd" d="M7 0C10.866 0 14 3.18858 14 7.12189C14 9.71123 11.9045 12.4482 7.80163 15.4281L7.44505 15.6841L7 16L6.55495 15.6841C2.21699 12.6047 0 9.78522 0 7.12189C0 3.18858 3.13401 0 7 0ZM7 2C4.24638 2 2 4.28549 2 7.12189C2 8.77056 3.48662 10.8514 6.68512 13.297L7 13.5348L7.31488 13.297C10.5134 10.8514 12 8.77056 12 7.12189C12 4.28549 9.75362 2 7 2ZM7 5C8.10457 5 9 5.89543 9 7C9 8.10457 8.10457 9 7 9C5.89543 9 5 8.10457 5 7C5 5.89543 5.89543 5 7 5Z" fill="white"/>
</svg>
