<svg width="14" height="16" viewBox="0 0 14 16" fill="none" xmlns="http://www.w3.org/2000/svg">
<path d="M13.3264 4.01071L9.35256 0.167857C9.24176 0.0607143 9.09219 0 8.93523 0H1.09091C0.764062 0 0.5 0.255357 0.5 0.571429V15.4286C0.5 15.7446 0.764062 16 1.09091 16H12.9091C13.2359 16 13.5 15.7446 13.5 15.4286V4.41607C13.5 4.26429 13.4372 4.11786 13.3264 4.01071ZM12.1372 4.67857H8.66193V1.31786L12.1372 4.67857ZM12.1705 14.7143H1.82955V1.28571H7.40625V5.14286C7.40625 5.34177 7.48796 5.53254 7.63341 5.67319C7.77886 5.81384 7.97612 5.89286 8.18182 5.89286H12.1705V14.7143Z" fill="white"/>
</svg>
