<svg width="12" height="12" viewBox="0 0 12 12" fill="none" xmlns="http://www.w3.org/2000/svg">
<path fill-rule="evenodd" clip-rule="evenodd" d="M1.58301 0.083374C0.754581 0.083374 0.0830078 0.754945 0.0830078 1.58337V9.44701H1.08301V1.58337C1.08301 1.30723 1.30686 1.08337 1.58301 1.08337H9.44664V0.083374H1.58301ZM3.62846 3.62883L10.4921 3.62883V10.4925H3.62846L3.62846 3.62883ZM2.62846 3.62883C2.62846 3.07654 3.07618 2.62883 3.62846 2.62883H10.4921C11.0444 2.62883 11.4921 3.07654 11.4921 3.62883V10.4925C11.4921 11.0448 11.0444 11.4925 10.4921 11.4925H3.62846C3.07618 11.4925 2.62846 11.0448 2.62846 10.4925V3.62883Z" fill="white"/>
</svg>
