<svg width="16" height="16" viewBox="0 0 16 16" fill="none" xmlns="http://www.w3.org/2000/svg">
<path fill-rule="evenodd" clip-rule="evenodd" d="M6.31623 6.94868C6.72457 6.81257 7 6.43043 7 6V3C7 1.34315 5.65685 0 4 0H1C0.447715 0 0 0.447715 0 1C0 8.85472 7.14528 16 15 16C15.5523 16 16 15.5523 16 15V12C16 10.3431 14.6569 9 13 9H10C9.56957 9 9.18743 9.27543 9.05132 9.68377L8.30429 11.9248C6.74458 10.9124 5.37501 9.58197 4.31438 8.05221L4.07516 7.69571L6.31623 6.94868ZM10.7208 11H13C13.5523 11 14 11.4477 14 12V13.9546C12.7978 13.8457 11.621 13.5439 10.503 13.0828L10.0866 12.9024L10.7208 11ZM2.04542 2H4C4.55228 2 5 2.44772 5 3V5.27924L3.09757 5.91338C2.53454 4.67278 2.16796 3.35246 2.04542 2Z" fill="white"/>
</svg>
