<svg width="25" height="20" viewBox="0 0 25 20" fill="none" xmlns="http://www.w3.org/2000/svg">
<path fill-rule="evenodd" clip-rule="evenodd" d="M19.2821 5.72641H19.3678C20.042 5.72652 20.7096 5.85966 21.3323 6.11821C21.9549 6.37675 22.5205 6.75562 22.9965 7.23311C23.9593 8.1981 24.5 9.50558 24.5 10.8687C24.5 12.2319 23.9593 13.5394 22.9965 14.5043C22.5205 14.9818 21.9549 15.3607 21.3323 15.6192C20.7096 15.8778 20.042 16.0109 19.3678 16.011H15.9481V14.2969H19.3678C20.2505 14.2575 21.0839 13.879 21.6946 13.2404C22.3052 12.6018 22.646 11.7523 22.646 10.8687C22.646 9.98515 22.3052 9.13562 21.6946 8.49703C21.0839 7.85844 20.2505 7.48 19.3678 7.44051H17.8011L17.5902 5.97152C17.4616 5.05118 17.0361 4.19796 16.3784 3.54147C15.7206 2.88498 14.8666 2.46109 13.946 2.33419C13.0249 2.20836 12.0879 2.38822 11.2789 2.84616C10.4698 3.30411 9.83333 4.01485 9.46708 4.86935L8.89628 6.1755L7.50957 5.85154C7.1926 5.77291 6.86765 5.73093 6.5411 5.72641C5.40636 5.72641 4.31791 6.17722 3.51742 6.98113C2.92086 7.58098 2.51495 8.34381 2.35072 9.1737C2.18649 10.0036 2.27128 10.8635 2.59442 11.6454C2.91757 12.4272 3.46464 13.0961 4.16686 13.5679C4.86909 14.0397 5.69512 14.2933 6.5411 14.2969H10.8161V16.011H6.5411C5.69208 16.0187 4.85118 15.8453 4.07443 15.5024C3.29768 15.1596 2.60292 14.6551 2.03643 14.0227C1.1799 13.0688 0.651248 11.8658 0.52787 10.5898C0.404492 9.31373 0.692873 8.03171 1.35079 6.93142C1.78654 6.20246 2.37223 5.57441 3.06904 5.08888C3.76585 4.60336 4.55788 4.27145 5.39265 4.11515C6.22571 3.96088 7.08447 3.98316 7.90896 4.18543C8.42848 2.99586 9.32124 2.00782 10.4522 1.37074C11.5832 0.733663 12.8909 0.482193 14.1774 0.654366C15.4646 0.828538 16.6596 1.41818 17.581 2.33367C18.5024 3.24915 19.0996 4.44042 19.2821 5.72641ZM16.4315 12.3309L14.1792 10.0802V19.3981H12.4753V10.1419L10.2847 12.3326L9.07284 11.119L12.7513 7.44051H13.9649L17.6434 11.119L16.4315 12.3309Z" fill="white"/>
</svg>
