<svg xmlns="http://www.w3.org/2000/svg">


  <!--logo header-->
  <symbol id="header-logo" viewBox="0 0 181 40" fill="white">
    <path d="M2 19.5L16 19.5M2 19.5L9 7L16 19.5M2 19.5L9 32M30 19.5L23 7L16 19.5M30 19.5L16 19.5M30 19.5L26.5 25.75L23 32M16 19.5L9 32M16 19.5L23 32M9 32L23 32" stroke="white" stroke-width="2.5"/>
    <path d="M52.892 29.36C51.164 29.36 49.692 28.984 48.476 28.232C47.26 27.472 46.328 26.416 45.68 25.064C45.04 23.712 44.72 22.144 44.72 20.36C44.72 18.576 45.04 17.008 45.68 15.656C46.328 14.304 47.26 13.252 48.476 12.5C49.692 11.74 51.164 11.36 52.892 11.36C54.884 11.36 56.532 11.864 57.836 12.872C59.148 13.88 60.06 15.236 60.572 16.94L58.028 17.624C57.692 16.416 57.092 15.468 56.228 14.78C55.372 14.092 54.26 13.748 52.892 13.748C51.668 13.748 50.648 14.024 49.832 14.576C49.016 15.128 48.4 15.9 47.984 16.892C47.576 17.884 47.372 19.04 47.372 20.36C47.364 21.68 47.564 22.836 47.972 23.828C48.388 24.82 49.004 25.592 49.82 26.144C50.644 26.696 51.668 26.972 52.892 26.972C54.26 26.972 55.372 26.628 56.228 25.94C57.092 25.244 57.692 24.296 58.028 23.096L60.572 23.78C60.06 25.484 59.148 26.84 57.836 27.848C56.532 28.856 54.884 29.36 52.892 29.36ZM63.1993 29V16.04H74.1313V29H71.6233V18.404H65.7073V29H63.1993ZM88.4047 16.04V29H85.9927V19.988L79.5127 29H77.4727V16.04H79.8847V24.872L86.3767 16.04H88.4047ZM97.8421 29.36C96.6021 29.36 95.5621 29.06 94.7221 28.46C93.8821 27.852 93.2461 27.032 92.8141 26C92.3821 24.968 92.1661 23.804 92.1661 22.508C92.1661 21.212 92.3781 20.048 92.8021 19.016C93.2341 17.984 93.8661 17.172 94.6981 16.58C95.5381 15.98 96.5701 15.68 97.7941 15.68C99.0101 15.68 100.058 15.98 100.938 16.58C101.826 17.172 102.51 17.984 102.99 19.016C103.47 20.04 103.71 21.204 103.71 22.508C103.71 23.804 103.47 24.972 102.99 26.012C102.518 27.044 101.842 27.86 100.962 28.46C100.09 29.06 99.0501 29.36 97.8421 29.36ZM91.7461 34.76V16.04H93.9781V25.364H94.2661V34.76H91.7461ZM97.4941 27.092C98.2941 27.092 98.9541 26.888 99.4741 26.48C100.002 26.072 100.394 25.524 100.65 24.836C100.914 24.14 101.046 23.364 101.046 22.508C101.046 21.66 100.914 20.892 100.65 20.204C100.394 19.516 99.9981 18.968 99.4621 18.56C98.9261 18.152 98.2421 17.948 97.4101 17.948C96.6261 17.948 95.9781 18.14 95.4661 18.524C94.9621 18.908 94.5861 19.444 94.3381 20.132C94.0981 20.82 93.9781 21.612 93.9781 22.508C93.9781 23.404 94.0981 24.196 94.3381 24.884C94.5781 25.572 94.9581 26.112 95.4781 26.504C95.9981 26.896 96.6701 27.092 97.4941 27.092ZM117.28 16.04V29H114.868V19.988L108.388 29H106.348V16.04H108.76V24.872L115.252 16.04H117.28ZM123.981 29V18.296H119.553V16.04H130.917V18.296H126.489V29H123.981ZM138 29V11.72H149.268V14.084H140.508V18.248H144.984C145.144 18.248 145.348 18.256 145.596 18.272C145.852 18.28 146.092 18.3 146.316 18.332C147.252 18.444 148.04 18.748 148.68 19.244C149.328 19.74 149.816 20.368 150.144 21.128C150.48 21.888 150.648 22.72 150.648 23.624C150.648 24.528 150.484 25.36 150.156 26.12C149.828 26.88 149.34 27.508 148.692 28.004C148.052 28.5 147.26 28.804 146.316 28.916C146.092 28.948 145.856 28.972 145.608 28.988C145.36 28.996 145.152 29 144.984 29H138ZM140.508 26.636H144.888C145.048 26.636 145.224 26.628 145.416 26.612C145.616 26.596 145.804 26.572 145.98 26.54C146.756 26.38 147.3 26.012 147.612 25.436C147.932 24.86 148.092 24.256 148.092 23.624C148.092 22.984 147.932 22.38 147.612 21.812C147.3 21.236 146.756 20.868 145.98 20.708C145.804 20.668 145.616 20.644 145.416 20.636C145.224 20.62 145.048 20.612 144.888 20.612H140.508V26.636ZM158.795 29.36C157.507 29.36 156.375 29.08 155.399 28.52C154.431 27.952 153.675 27.164 153.131 26.156C152.595 25.14 152.327 23.964 152.327 22.628C152.327 21.212 152.591 19.984 153.119 18.944C153.655 17.904 154.399 17.1 155.351 16.532C156.303 15.964 157.411 15.68 158.675 15.68C159.995 15.68 161.119 15.988 162.047 16.604C162.975 17.212 163.667 18.08 164.123 19.208C164.587 20.336 164.771 21.676 164.675 23.228H162.167V22.316C162.151 20.812 161.863 19.7 161.303 18.98C160.751 18.26 159.907 17.9 158.771 17.9C157.515 17.9 156.571 18.296 155.939 19.088C155.307 19.88 154.991 21.024 154.991 22.52C154.991 23.944 155.307 25.048 155.939 25.832C156.571 26.608 157.483 26.996 158.675 26.996C159.459 26.996 160.135 26.82 160.703 26.468C161.279 26.108 161.727 25.596 162.047 24.932L164.507 25.712C164.003 26.872 163.239 27.772 162.215 28.412C161.191 29.044 160.051 29.36 158.795 29.36ZM154.175 23.228V21.272H163.427V23.228H154.175ZM173.452 29.36C172.212 29.36 171.172 29.06 170.332 28.46C169.492 27.852 168.856 27.032 168.424 26C167.992 24.968 167.776 23.804 167.776 22.508C167.776 21.212 167.988 20.048 168.412 19.016C168.844 17.984 169.476 17.172 170.308 16.58C171.148 15.98 172.18 15.68 173.404 15.68C174.62 15.68 175.668 15.98 176.548 16.58C177.436 17.172 178.12 17.984 178.6 19.016C179.08 20.04 179.32 21.204 179.32 22.508C179.32 23.804 179.08 24.972 178.6 26.012C178.128 27.044 177.452 27.86 176.572 28.46C175.7 29.06 174.66 29.36 173.452 29.36ZM167.356 34.76V16.04H169.588V25.364H169.876V34.76H167.356ZM173.104 27.092C173.904 27.092 174.564 26.888 175.084 26.48C175.612 26.072 176.004 25.524 176.26 24.836C176.524 24.14 176.656 23.364 176.656 22.508C176.656 21.66 176.524 20.892 176.26 20.204C176.004 19.516 175.608 18.968 175.072 18.56C174.536 18.152 173.852 17.948 173.02 17.948C172.236 17.948 171.588 18.14 171.076 18.524C170.572 18.908 170.196 19.444 169.948 20.132C169.708 20.82 169.588 21.612 169.588 22.508C169.588 23.404 169.708 24.196 169.948 24.884C170.188 25.572 170.568 26.112 171.088 26.504C171.608 26.896 172.28 27.092 173.104 27.092Z"/>
  </symbol>

  <!--logo footer-->
  <symbol id="footer-logo" viewBox="0 0 262 60" fill="none">
    <path fill-rule="evenodd" clip-rule="evenodd" d="M-1.01562e-06 25.4454L14.2494 2.22653e-05L26.0779 21.1224L37.9064 2.12312e-05L52.1558 25.4454L39.1444 48.6799L13.0114 48.6799L-1.01562e-06 25.4454ZM22.4742 23.3331L14.2494 8.64603L6.02461 23.3331L22.4742 23.3331ZM6.02461 27.5576L22.4742 27.5576L14.2494 42.2447L6.02461 27.5576ZM17.8531 44.4555L34.3027 44.4555L26.0779 29.7684L17.8531 44.4555ZM29.6816 27.5576L37.9064 42.2447L46.1312 27.5576L29.6816 27.5576ZM46.1312 23.3331L37.9064 8.64603L29.6816 23.3331L46.1312 23.3331Z" fill="white"/>
    <path d="M75.3353 40.3959C73.2399 40.3959 71.3474 40.0377 69.6576 39.3212C67.9813 38.5912 66.5957 37.557 65.5007 36.2187C64.4192 34.8669 63.7163 33.265 63.3918 31.413L67.8123 30.7438C68.2584 32.5282 69.1912 33.9206 70.6106 34.921C72.03 35.9078 73.686 36.4012 75.5786 36.4012C76.7547 36.4012 77.8361 36.2187 78.823 35.8537C79.8098 35.4752 80.6006 34.9413 81.1954 34.2518C81.8038 33.5489 82.1079 32.7107 82.1079 31.7374C82.1079 31.2102 82.0133 30.7438 81.824 30.3383C81.6483 29.9327 81.3982 29.5813 81.0738 29.2839C80.7629 28.9729 80.3776 28.7093 79.918 28.493C79.4719 28.2632 78.9784 28.0672 78.4377 27.905L70.9553 25.6947C70.2253 25.4784 69.4818 25.2013 68.7248 24.8634C67.9678 24.5119 67.2716 24.059 66.6362 23.5048C66.0144 22.937 65.5075 22.2408 65.1154 21.4162C64.7234 20.5781 64.5274 19.5642 64.5274 18.3746C64.5274 16.5767 64.987 15.0558 65.9062 13.8122C66.839 12.555 68.0962 11.6087 69.6779 10.9733C71.2595 10.3244 73.0304 10 74.9905 10C76.9642 10.027 78.7284 10.3785 80.283 11.0544C81.8511 11.7303 83.1488 12.7037 84.1762 13.9744C85.2171 15.2316 85.9336 16.7591 86.3256 18.5571L81.7835 19.3276C81.5807 18.2326 81.1481 17.2931 80.4857 16.5091C79.8233 15.7115 79.0122 15.1032 78.0524 14.6841C77.0926 14.2515 76.0517 14.0285 74.9297 14.0149C73.8482 13.9879 72.8547 14.1501 71.9489 14.5016C71.0567 14.8531 70.3403 15.3465 69.7995 15.9818C69.2723 16.6172 69.0087 17.3472 69.0087 18.1718C69.0087 18.9829 69.2453 19.6385 69.7184 20.1387C70.1915 20.6389 70.7728 21.0377 71.4623 21.3351C72.1652 21.619 72.8614 21.8555 73.5508 22.0448L78.9446 23.5656C79.6206 23.7549 80.3843 24.0117 81.236 24.3362C82.1012 24.6471 82.9325 25.0864 83.7301 25.6542C84.5412 26.222 85.2104 26.979 85.7376 27.9253C86.2648 28.858 86.5284 30.0341 86.5284 31.4535C86.5284 32.927 86.231 34.2248 85.6362 35.3468C85.0414 36.4553 84.2235 37.3881 83.1826 38.1451C82.1552 38.8886 80.9656 39.4496 79.6138 39.8281C78.262 40.2066 76.8358 40.3959 75.3353 40.3959Z" fill="white"/>
    <path d="M101.13 40.3959C99.035 40.3959 97.2777 39.889 95.8583 38.8751C94.4388 37.8477 93.3641 36.4621 92.6341 34.7182C91.9042 32.9743 91.5392 31.0074 91.5392 28.8175C91.5392 26.6275 91.8974 24.6606 92.6139 22.9167C93.3438 21.1729 94.4118 19.8008 95.8177 18.8004C97.2371 17.7865 98.981 17.2796 101.049 17.2796C103.104 17.2796 104.875 17.7865 106.362 18.8004C107.862 19.8008 109.018 21.1729 109.829 22.9167C110.641 24.6471 111.046 26.614 111.046 28.8175C111.046 31.0074 110.641 32.9811 109.829 34.7385C109.032 36.4823 107.89 37.8612 106.403 38.8751C104.929 39.889 103.172 40.3959 101.13 40.3959ZM90.8294 49.5207V17.8879H94.601V33.6435H95.0877V49.5207H90.8294ZM100.542 36.5634C101.894 36.5634 103.009 36.2187 103.888 35.5293C104.78 34.8399 105.443 33.9139 105.875 32.7513C106.321 31.5752 106.544 30.2639 106.544 28.8175C106.544 27.3845 106.321 26.0868 105.875 24.9242C105.443 23.7616 104.774 22.8356 103.868 22.1462C102.962 21.4568 101.806 21.112 100.4 21.112C99.0756 21.112 97.9806 21.4365 97.1155 22.0854C96.2638 22.7342 95.6284 23.64 95.2094 24.8025C94.8038 25.9651 94.601 27.3034 94.601 28.8175C94.601 30.3315 94.8038 31.6698 95.2094 32.8324C95.6149 33.995 96.257 34.9075 97.1357 35.5699C98.0144 36.2323 99.15 36.5634 100.542 36.5634Z" fill="white"/>
    <path d="M115.929 14.2988V10.1825H120.167V14.2988H115.929ZM115.929 39.7876V17.8879H120.167V39.7876H115.929Z" fill="white"/>
    <path d="M126.256 39.7876V17.8879H130.028V23.2006L129.5 22.5112C129.771 21.8082 130.122 21.1661 130.555 20.5848C130.987 19.99 131.488 19.5034 132.055 19.1249C132.61 18.7193 133.225 18.4084 133.901 18.1921C134.59 17.9623 135.293 17.8271 136.009 17.7865C136.726 17.7325 137.415 17.7663 138.078 17.8879V21.8623C137.361 21.673 136.564 21.619 135.685 21.7001C134.82 21.7812 134.022 22.0583 133.292 22.5315C132.603 22.9776 132.055 23.5183 131.65 24.1537C131.258 24.789 130.974 25.4987 130.798 26.2828C130.622 27.0533 130.535 27.8712 130.535 28.7364V39.7876H126.256Z" fill="white"/>
    <path d="M142.345 14.2988V10.1825H146.583V14.2988H142.345ZM142.345 39.7876V17.8879H146.583V39.7876H142.345Z" fill="white"/>
    <path d="M165.204 39.7876C163.825 40.0579 162.473 40.1728 161.148 40.1323C159.823 40.0917 158.64 39.8349 157.6 39.3617C156.559 38.8886 155.775 38.1451 155.247 37.1312C154.774 36.2255 154.517 35.3062 154.477 34.3735C154.45 33.4272 154.436 32.3593 154.436 31.1697V11.8047H158.695V30.9669C158.695 31.8456 158.701 32.6094 158.715 33.2582C158.742 33.9071 158.884 34.4546 159.141 34.9007C159.627 35.7388 160.398 36.2187 161.452 36.3404C162.52 36.4485 163.771 36.4012 165.204 36.1985V39.7876ZM150.239 21.2945V17.8879H165.204V21.2945H150.239Z" fill="white"/>
    <path d="M177.94 39.7876V10.588H189.417C191.269 10.588 192.823 10.9666 194.081 11.7236C195.338 12.4806 196.284 13.4607 196.919 14.6638C197.555 15.8534 197.872 17.1106 197.872 18.4354C197.872 20.0441 197.474 21.423 196.676 22.572C195.892 23.7211 194.831 24.5051 193.493 24.9242L193.452 23.9306C195.318 24.3902 196.75 25.2892 197.751 26.6275C198.751 27.9523 199.251 29.5001 199.251 31.271C199.251 32.9879 198.907 34.4816 198.217 35.7524C197.541 37.0231 196.548 38.0167 195.236 38.7331C193.939 39.4361 192.364 39.7876 190.512 39.7876H177.94ZM182.239 35.7524H189.863C190.823 35.7524 191.681 35.5699 192.438 35.2049C193.209 34.8399 193.81 34.3194 194.243 33.6435C194.689 32.9541 194.912 32.1362 194.912 31.1899C194.912 30.3112 194.716 29.5204 194.324 28.8175C193.945 28.101 193.391 27.54 192.661 27.1344C191.945 26.7154 191.1 26.5058 190.126 26.5058H182.239V35.7524ZM182.239 22.5112H189.356C190.14 22.5112 190.843 22.3557 191.465 22.0448C192.1 21.7204 192.6 21.2607 192.965 20.6659C193.344 20.0576 193.533 19.3276 193.533 18.476C193.533 17.3404 193.155 16.4077 192.398 15.6777C191.641 14.9477 190.627 14.5827 189.356 14.5827H182.239V22.5112Z" fill="white"/>
    <path d="M212.999 40.3959C210.823 40.3959 208.91 39.9228 207.261 38.9765C205.625 38.0167 204.348 36.6851 203.428 34.9818C202.523 33.265 202.07 31.2778 202.07 29.0202C202.07 26.6275 202.516 24.5524 203.408 22.7951C204.314 21.0377 205.571 19.6791 207.18 18.7193C208.789 17.7595 210.661 17.2796 212.797 17.2796C215.027 17.2796 216.927 17.8001 218.495 18.841C220.063 19.8684 221.232 21.3351 222.003 23.2412C222.787 25.1473 223.098 27.4116 222.935 30.0341H218.697V28.493C218.67 25.9516 218.184 24.0725 217.237 22.8559C216.305 21.6393 214.878 21.0309 212.959 21.0309C210.837 21.0309 209.241 21.7001 208.173 23.0384C207.105 24.3767 206.572 26.3098 206.572 28.8377C206.572 31.244 207.105 33.1095 208.173 34.4343C209.241 35.7456 210.782 36.4012 212.797 36.4012C214.121 36.4012 215.264 36.1038 216.224 35.509C217.197 34.9007 217.954 34.0355 218.495 32.9135L222.652 34.2315C221.8 36.1917 220.509 37.7125 218.779 38.794C217.048 39.8619 215.122 40.3959 212.999 40.3959ZM205.193 30.0341V26.7289H220.827V30.0341H205.193Z" fill="white"/>
    <path d="M233.273 40.3959C231.651 40.3959 230.293 40.0985 229.198 39.5037C228.103 38.8954 227.271 38.0978 226.704 37.1109C226.149 36.1106 225.872 35.0156 225.872 33.826C225.872 32.7175 226.068 31.7442 226.46 30.906C226.852 30.0679 227.434 29.3582 228.204 28.7769C228.975 28.1821 229.921 27.7022 231.043 27.3372C232.016 27.0533 233.118 26.8032 234.348 26.587C235.578 26.3707 236.869 26.1679 238.221 25.9786C239.586 25.7894 240.938 25.6001 242.277 25.4109L240.736 26.2625C240.763 24.5457 240.398 23.275 239.641 22.4504C238.897 21.6122 237.613 21.1931 235.788 21.1931C234.639 21.1931 233.584 21.4635 232.625 22.0042C231.665 22.5315 230.996 23.4101 230.617 24.6403L226.663 23.4237C227.204 21.5446 228.231 20.0509 229.745 18.9424C231.273 17.8339 233.3 17.2796 235.828 17.2796C237.789 17.2796 239.492 17.6176 240.938 18.2935C242.398 18.9559 243.466 20.0103 244.142 21.4568C244.494 22.1732 244.71 22.9303 244.791 23.7278C244.872 24.5254 244.913 25.3838 244.913 26.3031V39.7876H241.161V34.779L241.891 35.4279C240.986 37.1042 239.83 38.3546 238.424 39.1792C237.031 39.9903 235.315 40.3959 233.273 40.3959ZM234.024 36.9284C235.227 36.9284 236.261 36.7189 237.126 36.2998C237.991 35.8673 238.688 35.3198 239.215 34.6574C239.742 33.995 240.087 33.3055 240.249 32.5891C240.479 31.9402 240.607 31.2102 240.634 30.3991C240.675 29.588 240.695 28.9391 240.695 28.4525L242.074 28.9594C240.736 29.1622 239.519 29.3447 238.424 29.5069C237.329 29.6691 236.335 29.8313 235.443 29.9936C234.564 30.1423 233.78 30.3248 233.091 30.5411C232.51 30.7438 231.989 30.9872 231.53 31.271C231.083 31.5549 230.725 31.8996 230.455 32.3052C230.198 32.7107 230.07 33.2042 230.07 33.7854C230.07 34.3532 230.212 34.8804 230.495 35.3671C230.779 35.8402 231.212 36.2187 231.793 36.5026C232.374 36.7865 233.118 36.9284 234.024 36.9284Z" fill="white"/>
    <path d="M250.178 39.7876V17.8879H253.95V23.2006L253.423 22.5112C253.693 21.8082 254.044 21.1661 254.477 20.5848C254.91 19.99 255.41 19.5034 255.977 19.1249C256.532 18.7193 257.147 18.4084 257.823 18.1921C258.512 17.9623 259.215 17.8271 259.932 17.7865C260.648 17.7325 261.338 17.7663 262 17.8879V21.8623C261.283 21.673 260.486 21.619 259.607 21.7001C258.742 21.7812 257.944 22.0583 257.214 22.5315C256.525 22.9776 255.977 23.5183 255.572 24.1537C255.18 24.789 254.896 25.4987 254.72 26.2828C254.545 27.0533 254.457 27.8712 254.457 28.7364V39.7876H250.178Z" fill="white"/>
  </symbol>

</svg>
