<svg width="181" height="40" viewBox="0 0 181 40" fill="none" xmlns="http://www.w3.org/2000/svg">
<path d="M2 19.5L16 19.5M2 19.5L9 7L16 19.5M2 19.5L9 32M30 19.5L23 7L16 19.5M30 19.5L16 19.5M30 19.5L26.5 25.75L23 32M16 19.5L9 32M16 19.5L23 32M9 32L23 32" stroke="white" stroke-width="2.5"/>
<path d="M52.892 29.36C51.164 29.36 49.692 28.984 48.476 28.232C47.26 27.472 46.328 26.416 45.68 25.064C45.04 23.712 44.72 22.144 44.72 20.36C44.72 18.576 45.04 17.008 45.68 15.656C46.328 14.304 47.26 13.252 48.476 12.5C49.692 11.74 51.164 11.36 52.892 11.36C54.884 11.36 56.532 11.864 57.836 12.872C59.148 13.88 60.06 15.236 60.572 16.94L58.028 17.624C57.692 16.416 57.092 15.468 56.228 14.78C55.372 14.092 54.26 13.748 52.892 13.748C51.668 13.748 50.648 14.024 49.832 14.576C49.016 15.128 48.4 15.9 47.984 16.892C47.576 17.884 47.372 19.04 47.372 20.36C47.364 21.68 47.564 22.836 47.972 23.828C48.388 24.82 49.004 25.592 49.82 26.144C50.644 26.696 51.668 26.972 52.892 26.972C54.26 26.972 55.372 26.628 56.228 25.94C57.092 25.244 57.692 24.296 58.028 23.096L60.572 23.78C60.06 25.484 59.148 26.84 57.836 27.848C56.532 28.856 54.884 29.36 52.892 29.36ZM63.1993 29V16.04H74.1313V29H71.6233V18.404H65.7073V29H63.1993ZM88.4047 16.04V29H85.9927V19.988L79.5127 29H77.4727V16.04H79.8847V24.872L86.3767 16.04H88.4047ZM97.8421 29.36C96.6021 29.36 95.5621 29.06 94.7221 28.46C93.8821 27.852 93.2461 27.032 92.8141 26C92.3821 24.968 92.1661 23.804 92.1661 22.508C92.1661 21.212 92.3781 20.048 92.8021 19.016C93.2341 17.984 93.8661 17.172 94.6981 16.58C95.5381 15.98 96.5701 15.68 97.7941 15.68C99.0101 15.68 100.058 15.98 100.938 16.58C101.826 17.172 102.51 17.984 102.99 19.016C103.47 20.04 103.71 21.204 103.71 22.508C103.71 23.804 103.47 24.972 102.99 26.012C102.518 27.044 101.842 27.86 100.962 28.46C100.09 29.06 99.0501 29.36 97.8421 29.36ZM91.7461 34.76V16.04H93.9781V25.364H94.2661V34.76H91.7461ZM97.4941 27.092C98.2941 27.092 98.9541 26.888 99.4741 26.48C100.002 26.072 100.394 25.524 100.65 24.836C100.914 24.14 101.046 23.364 101.046 22.508C101.046 21.66 100.914 20.892 100.65 20.204C100.394 19.516 99.9981 18.968 99.4621 18.56C98.9261 18.152 98.2421 17.948 97.4101 17.948C96.6261 17.948 95.9781 18.14 95.4661 18.524C94.9621 18.908 94.5861 19.444 94.3381 20.132C94.0981 20.82 93.9781 21.612 93.9781 22.508C93.9781 23.404 94.0981 24.196 94.3381 24.884C94.5781 25.572 94.9581 26.112 95.4781 26.504C95.9981 26.896 96.6701 27.092 97.4941 27.092ZM117.28 16.04V29H114.868V19.988L108.388 29H106.348V16.04H108.76V24.872L115.252 16.04H117.28ZM123.981 29V18.296H119.553V16.04H130.917V18.296H126.489V29H123.981ZM138 29V11.72H149.268V14.084H140.508V18.248H144.984C145.144 18.248 145.348 18.256 145.596 18.272C145.852 18.28 146.092 18.3 146.316 18.332C147.252 18.444 148.04 18.748 148.68 19.244C149.328 19.74 149.816 20.368 150.144 21.128C150.48 21.888 150.648 22.72 150.648 23.624C150.648 24.528 150.484 25.36 150.156 26.12C149.828 26.88 149.34 27.508 148.692 28.004C148.052 28.5 147.26 28.804 146.316 28.916C146.092 28.948 145.856 28.972 145.608 28.988C145.36 28.996 145.152 29 144.984 29H138ZM140.508 26.636H144.888C145.048 26.636 145.224 26.628 145.416 26.612C145.616 26.596 145.804 26.572 145.98 26.54C146.756 26.38 147.3 26.012 147.612 25.436C147.932 24.86 148.092 24.256 148.092 23.624C148.092 22.984 147.932 22.38 147.612 21.812C147.3 21.236 146.756 20.868 145.98 20.708C145.804 20.668 145.616 20.644 145.416 20.636C145.224 20.62 145.048 20.612 144.888 20.612H140.508V26.636ZM158.795 29.36C157.507 29.36 156.375 29.08 155.399 28.52C154.431 27.952 153.675 27.164 153.131 26.156C152.595 25.14 152.327 23.964 152.327 22.628C152.327 21.212 152.591 19.984 153.119 18.944C153.655 17.904 154.399 17.1 155.351 16.532C156.303 15.964 157.411 15.68 158.675 15.68C159.995 15.68 161.119 15.988 162.047 16.604C162.975 17.212 163.667 18.08 164.123 19.208C164.587 20.336 164.771 21.676 164.675 23.228H162.167V22.316C162.151 20.812 161.863 19.7 161.303 18.98C160.751 18.26 159.907 17.9 158.771 17.9C157.515 17.9 156.571 18.296 155.939 19.088C155.307 19.88 154.991 21.024 154.991 22.52C154.991 23.944 155.307 25.048 155.939 25.832C156.571 26.608 157.483 26.996 158.675 26.996C159.459 26.996 160.135 26.82 160.703 26.468C161.279 26.108 161.727 25.596 162.047 24.932L164.507 25.712C164.003 26.872 163.239 27.772 162.215 28.412C161.191 29.044 160.051 29.36 158.795 29.36ZM154.175 23.228V21.272H163.427V23.228H154.175ZM173.452 29.36C172.212 29.36 171.172 29.06 170.332 28.46C169.492 27.852 168.856 27.032 168.424 26C167.992 24.968 167.776 23.804 167.776 22.508C167.776 21.212 167.988 20.048 168.412 19.016C168.844 17.984 169.476 17.172 170.308 16.58C171.148 15.98 172.18 15.68 173.404 15.68C174.62 15.68 175.668 15.98 176.548 16.58C177.436 17.172 178.12 17.984 178.6 19.016C179.08 20.04 179.32 21.204 179.32 22.508C179.32 23.804 179.08 24.972 178.6 26.012C178.128 27.044 177.452 27.86 176.572 28.46C175.7 29.06 174.66 29.36 173.452 29.36ZM167.356 34.76V16.04H169.588V25.364H169.876V34.76H167.356ZM173.104 27.092C173.904 27.092 174.564 26.888 175.084 26.48C175.612 26.072 176.004 25.524 176.26 24.836C176.524 24.14 176.656 23.364 176.656 22.508C176.656 21.66 176.524 20.892 176.26 20.204C176.004 19.516 175.608 18.968 175.072 18.56C174.536 18.152 173.852 17.948 173.02 17.948C172.236 17.948 171.588 18.14 171.076 18.524C170.572 18.908 170.196 19.444 169.948 20.132C169.708 20.82 169.588 21.612 169.588 22.508C169.588 23.404 169.708 24.196 169.948 24.884C170.188 25.572 170.568 26.112 171.088 26.504C171.608 26.896 172.28 27.092 173.104 27.092Z" fill="white"/>
</svg>
